<svg xmlns="http://www.w3.org/2000/svg" xmlns:xlink="http://www.w3.org/1999/xlink">
  <g transform="matrix(0,0.6561,-1.0753,0,120,0)">
    <rect x="0" y="0" width="186" height="17" fill="none" /><svg width="186.742" height="17.218999999999994"
      viewBox="-5,79.525,186.742,17.218999999999994">
      <desc>Created with Snap</desc>
      <defs />
      <g />
      <g />
      <g>
        <rect y="84.525" width="176.742" height="7.219" fill="rgb(23,96,160)" stroke="none" style="" />
      </g>
    </svg></g>
  <g transform="matrix(1,0,0,1,0,0)">
    <rect x="0" y="0" width="81" height="109" fill="none" /><svg width="81.50499999999998" height="109.541"
      viewBox="8.937999999999997,-4.904000000000011,81.50499999999998,109.541">
      <desc>Created with Snap</desc>
      <defs />
      <g />
      <g>
        <path
          d="M85.403,72.718c-0.094-1.257-0.722-2.363-1.66-3.09c0.984-0.764,1.636-1.885,1.679-3.221 c0,0-0.005-7.849-0.005-8.027c0-1.392-0.656-2.621-1.674-3.408c0.984-0.765,1.627-1.946,1.669-3.273l0.02-10.1 c0-1.346-0.671-1.979-1.613-2.241l-14.723-3.98l-0.037-14.502c0-13.372-6.699-20.78-18.328-20.78 c-10.422,0-18.88,5.086-18.88,20.859v18.854l-16.054,4.542c-0.933,0.263-1.82,1.434-1.82,2.442l-0.014,12.384h0.009 c0.047,1.405,0.722,2.648,1.763,3.45c-1.079,0.83-1.768,2.128-1.768,3.592v0.033l-0.01-0.01l-0.004,7.445h0.009v0.075h0.009 c0.047,1.406,0.722,2.645,1.763,3.446c-0.994,0.764-1.65,1.932-1.749,3.249l-0.042,0.028l-0.005,6.24 c0.122,2.387,1.697,4.384,3.854,5.134l24.319,7.647c0.337,0.079,0.68,0.131,1.041,0.131c0.379,0,0.745-0.052,1.097-0.146 l39.375-17.053c0,0,0.98-0.304,1.439-1.072c0.361-0.619,0.38-1.844,0.38-1.844L85.403,72.718z M58.063,15.844 c0.296,0,0.558,0.126,0.745,0.329c1.188,1.106,1.75,2.93,1.75,4.91v18.481l-0.005,0.006v0.015c0,0.472-0.38,0.86-0.854,0.86 c-0.122,0-0.234-0.032-0.342-0.079c-1.37-0.398-2.265-1.05-2.265-1.782h-0.005l-0.006-21.075c0-0.187-0.009-0.366-0.018-0.544 l0.004-0.005c-0.004-0.036-0.014-0.076-0.014-0.107C57.056,16.29,57.511,15.844,58.063,15.844z M55.991,18.204v14.791l-10.066,2.842 V25.301c0-11.609,2.635-13.053,6.363-13.124C54.613,12.177,55.991,14.991,55.991,18.204z M33.979,21.677 c0.122-12.555,5.692-18.21,13.32-19.883c0.736-0.137,3.545-0.553,4.347,1.218c0.643,1.43-1.623,2.448-2.162,2.664 c-5.228,1.567-8.749,5.997-8.749,16.119v22.477l-0.014-0.009c-0.169,1.623-1.608,2.176-3.366,2.176 c-1.866,0-3.381-0.627-3.381-2.493C33.974,43.944,33.979,21.714,33.979,21.677z M56.244,83.971c-0.571,0-1.04-0.465-1.04-1.041 c0-0.572,0.469-1.036,1.04-1.036c0.573,0,1.037,0.464,1.037,1.036C57.281,83.506,56.817,83.971,56.244,83.971z M56.244,69.469 c-0.571,0-1.04-0.465-1.04-1.041c0-0.571,0.469-1.041,1.04-1.041c0.573,0,1.037,0.47,1.037,1.041 C57.281,69.004,56.817,69.469,56.244,69.469z M81.075,41.79L43.872,53.345c-0.22,0.042-0.445,0.07-0.675,0.07 c-0.427,0-0.834-0.074-1.214-0.206v0.009l-12.35-3.686c-0.952-0.444-2.086-0.028-2.527,0.929c-0.445,0.956-0.023,2.092,0.928,2.537 l12.556,3.638c1.486,0.455,2.574,1.824,2.603,3.451v3.892c0,1.257-0.272,4.018-2.598,3.451l-10.962-3.277 c-0.952-0.441-2.086-0.024-2.527,0.933c-0.445,0.962-0.023,2.091,0.928,2.536l12.556,3.906c0.136,0.042,0.272,0.098,0.403,0.154 c0.572,0.115,1.627,0.221,2.944-0.196l7.91-2.689c0.54-0.185,1.125,0.105,1.312,0.64c0.188,0.544-0.103,1.135-0.642,1.318 l-8.106,2.752c-0.263,0.126-1.107,0.609-1.219,1.819v3.192c0,1.257-0.272,4.018-2.603,3.441l0,0l-10.957-3.268 c-0.952-0.445-2.086-0.028-2.527,0.933c-0.445,0.952-0.023,2.086,0.928,2.532l12.556,3.91c0.07,0.02,0.136,0.042,0.207,0.065 c0.497,0.137,1.65,0.329,3.141-0.146l7.91-2.687c0.54-0.183,1.125,0.104,1.312,0.638c0.188,0.544-0.103,1.13-0.642,1.317 l-8.106,2.753c-0.263,0.126-1.107,0.608-1.219,1.814v3.254c-0.075,1.383-1.219,2.489-2.626,2.489c-0.234,0-0.455-0.032-0.67-0.089 l-21.028-6.564l0,0c-1.073-0.328-1.857-1.331-1.857-2.513v-0.014l0,0v-3.668c0-1.097,0-2.081,0.005-2.076 c0.08-0.76,0.717-1.346,1.496-1.346c0.131,0,0.263,0.019,0.38,0.052c0.197,0.065,0.403,0.105,0.619,0.105 c1.064,0,1.923-0.865,1.923-1.93c0-0.866-0.582-1.608-1.379-1.847c0,0-1.993-0.601-2.006-0.605 c-0.567-0.183-0.984-0.684-1.037-1.294c0,0,0-0.136-0.004-0.36c0.004-2.365,0.004-7.361,0.009-7.356 c0.08-0.761,0.717-1.351,1.496-1.351c0.131,0,0.263,0.023,0.38,0.056c0.197,0.065,0.403,0.104,0.619,0.104 c1.064,0,1.923-0.862,1.923-1.928c0-0.871-0.582-1.611-1.379-1.847c0,0-1.993-0.601-2.006-0.604 c-0.567-0.179-0.984-0.685-1.037-1.297c-0.004,0.007-0.014-10.3-0.014-10.3c0-1.245,0.872-2.292,2.035-2.559l12.819-3.84v4.22h0.009 c0,1.571,3.15,2.846,7.033,2.846c3.882,0,7.033-1.275,7.033-2.846V38.29l9.804-2.937l0,0c0.083-0.026,0.177-0.047,0.262-0.064v4.918 h0.005c0,1.458,2.936,2.644,6.555,2.644c3.62,0,6.555-1.186,6.555-2.644l-0.005-2.472l11.961,3.043 c0.206,0.075,0.356,0.271,0.356,0.507C81.418,41.514,81.277,41.707,81.075,41.79z"
          stroke="none" fill="rgb(23,96,160)" style="" />
      </g>
    </svg></g>
  <g transform="matrix(0.7181,0,0,0.7181,315,30)">
    <path fill="none" style="" d="M-244.20000000000002,80 C-20,79 20,79 244.20000000000002,80" />
    <path
      d="M-211.20000000000002-51L-211.20000000000002-51L-215.9-35.8L-200.20000000000002-35.8L-204.90000000000003-51Q-205.3-51.9 -205.75-52.3Q-206.20000000000002-52.7 -206.8-52.7L-206.8-52.7L-209.3-52.7Q-209.90000000000003-52.7 -210.35000000000002-52.3Q-210.8-51.9 -211.20000000000002-51ZM-216.9-17.6L-216.9-3.6Q-216.9-1.7 -217.75000000000003-0.85Q-218.60000000000002 0 -220.50000000000003 0L-220.50000000000003 0L-235.20000000000002 0Q-237.10000000000002 0 -237.95000000000002-0.85Q-238.8-1.7 -238.8-3.6L-238.8-3.6L-238.8-30Q-238.8-33 -237.85000000000002-36.9Q-236.9-40.8 -234.9-46L-234.9-46L-226.20000000000002-68.7Q-225.60000000000002-70.4 -224.35000000000002-71.2Q-223.10000000000002-72 -221.10000000000002-72L-221.10000000000002-72L-194.20000000000002-72Q-192.3-72 -191.05-71.2Q-189.8-70.4 -189.20000000000002-68.7L-189.20000000000002-68.7L-180.5-46Q-178.5-40.8 -177.55-36.9Q-176.60000000000002-33 -176.60000000000002-30L-176.60000000000002-30L-176.60000000000002-3.6Q-176.60000000000002-1.7 -177.45000000000002-0.85Q-178.3 0 -180.20000000000002 0L-180.20000000000002 0L-195.3 0Q-197.3 0 -198.25-0.85Q-199.20000000000002-1.7 -199.20000000000002-3.6L-199.20000000000002-3.6L-199.20000000000002-17.6L-216.9-17.6ZM-119.70000000000002 0L-162.3 0Q-164.20000000000002 0 -165.05-0.85Q-165.9-1.7 -165.9-3.6L-165.9-3.6L-165.9-15.5Q-165.9-17.4 -165.05-18.25Q-164.20000000000002-19.1 -162.3-19.1L-162.3-19.1L-152.4-19.1L-152.4-52.7L-162.3-52.7Q-164.20000000000002-52.7 -165.05-53.55Q-165.9-54.4 -165.9-56.3L-165.9-56.3L-165.9-68.4Q-165.9-70.3 -165.05-71.15Q-164.20000000000002-72 -162.3-72L-162.3-72L-119.70000000000002-72Q-117.80000000000001-72 -116.95000000000002-71.15Q-116.10000000000002-70.3 -116.10000000000002-68.4L-116.10000000000002-68.4L-116.10000000000002-56.3Q-116.10000000000002-54.4 -116.95000000000002-53.55Q-117.80000000000001-52.7 -119.70000000000002-52.7L-119.70000000000002-52.7L-129.40000000000003-52.7L-129.40000000000003-19.1L-119.70000000000002-19.1Q-117.80000000000001-19.1 -116.95000000000002-18.25Q-116.10000000000002-17.4 -116.10000000000002-15.5L-116.10000000000002-15.5L-116.10000000000002-3.6Q-116.10000000000002-1.7 -116.95000000000002-0.85Q-117.80000000000001 0 -119.70000000000002 0L-119.70000000000002 0ZM-73.70000000000002-54L-81.20000000000002-54L-81.20000000000002-41.2L-73.70000000000002-41.2Q-71.10000000000002-41.2 -70.20000000000002-42.55Q-69.30000000000001-43.9 -69.30000000000001-45.9L-69.30000000000001-45.9L-69.30000000000001-49.3Q-69.30000000000001-51.3 -70.20000000000002-52.65Q-71.10000000000002-54 -73.70000000000002-54L-73.70000000000002-54ZM-84.80000000000001 0L-84.80000000000001 0L-100.20000000000002 0Q-102.10000000000002 0 -102.95000000000002-0.85Q-103.80000000000001-1.7 -103.80000000000001-3.6L-103.80000000000001-3.6L-103.80000000000001-68.4Q-103.80000000000001-70.3 -102.95000000000002-71.15Q-102.10000000000002-72 -100.20000000000002-72L-100.20000000000002-72L-66.90000000000002-72Q-55.70000000000002-72 -51.45000000000002-67.35Q-47.20000000000002-62.7 -47.20000000000002-55.3L-47.20000000000002-55.3L-47.20000000000002-50.7Q-47.20000000000002-46.5 -48.45000000000002-43.55Q-49.70000000000002-40.6 -52.80000000000002-39.3L-52.80000000000002-39.3Q-47.40000000000002-38.7 -44.05000000000001-34.9Q-40.70000000000002-31.1 -40.70000000000002-24.8L-40.70000000000002-24.8L-40.70000000000002-3.6Q-40.70000000000002-1.7 -41.55000000000001-0.85Q-42.40000000000002 0 -44.30000000000001 0L-44.30000000000001 0L-59.80000000000002 0Q-61.70000000000002 0 -62.55000000000002-0.85Q-63.40000000000002-1.7 -63.40000000000002-3.6L-63.40000000000002-3.6L-63.40000000000002-18.9Q-63.40000000000002-21.1 -64.25000000000001-22.15Q-65.10000000000002-23.2 -67.20000000000002-23.2L-67.20000000000002-23.2L-81.20000000000002-23.2L-81.20000000000002-3.6Q-81.20000000000002-1.7 -82.05000000000001-0.85Q-82.90000000000002 0 -84.80000000000001 0ZM 24.999999999999993 0L 24.999999999999993 0L-25.900000000000006 0Q-27.800000000000004 0 -28.650000000000006-0.85Q-29.500000000000007-1.7 -29.500000000000007-3.6L-29.500000000000007-3.6L-29.500000000000007-68.4Q-29.500000000000007-70.3 -28.650000000000006-71.15Q-27.800000000000004-72 -25.900000000000006-72L-25.900000000000006-72L-10.400000000000006-72Q-8.500000000000007-72 -7.650000000000006-71.15Q-6.800000000000004-70.3 -6.800000000000004-68.4L-6.800000000000004-68.4L-6.800000000000004-18.9L 6.8999999999999915-18.9L 6.8999999999999915-35.1Q 6.8999999999999915-37  7.749999999999993-37.85Q 8.599999999999994-38.7  10.499999999999993-38.7L 10.499999999999993-38.7L 24.999999999999993-38.7Q 26.89999999999999-38.7  27.75-37.85Q 28.599999999999994-37  28.599999999999994-35.1L 28.599999999999994-35.1L 28.599999999999994-3.6Q 28.599999999999994-1.7  27.75-0.85Q 26.89999999999999 0  24.999999999999993 0ZM 101-53L 101-18.9Q 101-14.3  99.64999999999998-10.55Q 98.29999999999998-6.8  94.85-4.15Q 91.39999999999998-1.5  85.35 0Q 79.29999999999998 1.5  69.99999999999999 1.5L 69.99999999999999 1.5Q 60.69999999999999 1.5  54.59999999999999 0Q 48.499999999999986-1.5  45.04999999999998-4.15Q 41.59999999999999-6.8  40.249999999999986-10.55Q 38.899999999999984-14.3  38.899999999999984-18.9L 38.899999999999984-18.9L 38.899999999999984-53Q 38.899999999999984-57.6  40.249999999999986-61.35Q 41.59999999999999-65.1  45.04999999999998-67.8Q 48.499999999999986-70.5  54.59999999999999-72Q 60.69999999999999-73.5  69.99999999999999-73.5L 69.99999999999999-73.5Q 79.29999999999998-73.5  85.35-72Q 91.39999999999998-70.5  94.85-67.8Q 98.29999999999998-65.1  99.64999999999998-61.35Q 101-57.6  101-53L 101-53ZM 61.59999999999999-49.4L 61.59999999999999-22.5Q 61.59999999999999-20.5  63.09999999999999-19.15Q 64.6-17.8  69.99999999999999-17.8L 69.99999999999999-17.8Q 75.39999999999998-17.8  76.89999999999998-19.15Q 78.39999999999998-20.5  78.39999999999998-22.5L 78.39999999999998-22.5L 78.39999999999998-49.4Q 78.39999999999998-51.3  76.89999999999998-52.65Q 75.39999999999998-54  69.99999999999999-54L 69.99999999999999-54Q 64.6-54  63.09999999999999-52.65Q 61.59999999999999-51.3  61.59999999999999-49.4L 61.59999999999999-49.4ZM 161.59999999999997 0L 161.59999999999997 0L 137.2 0Q 124.69999999999999 0  118.64999999999998-5Q 112.59999999999998-10  112.59999999999998-20.4L 112.59999999999998-20.4L 112.59999999999998-51.5Q 112.59999999999998-61.9  118.64999999999998-66.95Q 124.69999999999999-72  137.2-72L 137.2-72L 161.59999999999997-72Q 163.5-72  164.34999999999997-71.15Q 165.2-70.3  165.2-68.4L 165.2-68.4L 165.2-56.3Q 165.2-54.4  164.34999999999997-53.55Q 163.5-52.7  161.59999999999997-52.7L 161.59999999999997-52.7L 141.5-52.7Q 138.39999999999998-52.7  136.89999999999998-51.45Q 135.39999999999998-50.2  135.39999999999998-47.7L 135.39999999999998-47.7L 135.39999999999998-23.9Q 135.39999999999998-21.4  136.89999999999998-20.25Q 138.39999999999998-19.1  141.5-19.1L 141.5-19.1L 161.59999999999997-19.1Q 163.5-19.1  164.34999999999997-18.25Q 165.2-17.4  165.2-15.5L 165.2-15.5L 165.2-3.6Q 165.2-1.7  164.34999999999997-0.85Q 163.5 0  161.59999999999997 0ZM 195.6 0L 195.6 0L 180.1 0Q 178.2 0  177.35-0.85Q 176.5-1.7  176.5-3.6L 176.5-3.6L 176.5-68.4Q 176.5-70.3  177.35-71.15Q 178.2-72  180.1-72L 180.1-72L 195.6-72Q 197.5-72  198.35-71.15Q 199.2-70.3  199.2-68.4L 199.2-68.4L 199.2-45.4L 203.2-45.4L 213.5-68.7Q 214.2-70.5  215.39999999999998-71.25Q 216.6-72  218.5-72L 218.5-72L 233.89999999999998-72Q 235.6-72  236.2-71.15Q 236.8-70.3  236.1-68.7L 236.1-68.7L 225.89999999999998-45.4Q 231.5-45.1  234.85-41.45Q 238.2-37.8  238.2-31.8L 238.2-31.8L 238.2-3.6Q 238.2-1.7  237.35-0.85Q 236.5 0  234.6 0L 234.6 0L 219.2 0Q 217.3 0  216.45-0.85Q 215.6-1.7  215.6-3.6L 215.6-3.6L 215.6-23.1Q 215.6-24.7  214.8-25.6Q 214-26.5  212.39999999999998-26.5L 212.39999999999998-26.5L 199.2-26.5L 199.2-3.6Q 199.2-1.7  198.35-0.85Q 197.5 0  195.6 0Z"
      data-textpath="airlock" data-text-anchor="middle" data-font-size="100" data-letterspacing="0" data-side="left"
      data-offset="0" data-dx="0" data-dy="75" data-href="" data-font="Bungee"
      data-font-src="/Content/clientfonts/bungee.woff" data-font-scale="contain" transform="translate(0,75)"
      data-xmlspace="preserve" fill="rgb(23,96,160)" />
    <rect x="0" y="0" width="0" height="0" />
  </g>
</svg>